<svg width="21" height="20" viewBox="0 0 21 20" fill="none" xmlns="http://www.w3.org/2000/svg">
<g filter="url(#filter0_d)">
<path d="M10.4687 12C10.3589 12.0014 10.2501 11.9798 10.1499 11.9367C10.0496 11.8935 9.96033 11.8298 9.88815 11.75C5.95926 7.42 5.03665 6.44 4.86042 6.17C4.30709 5.49497 4.00416 4.66056 4 3.8C4.00441 3.07425 4.22306 2.36473 4.63034 1.7545C5.03762 1.14428 5.61668 0.658598 6.29973 0.354328C6.98278 0.0500576 7.74155 -0.0602132 8.48721 0.036425C9.23287 0.133063 9.93456 0.432611 10.5101 0.9C11.2277 0.319491 12.1341 0.00090711 13.0707 0C14.1136 0.00264761 15.1129 0.404172 15.8494 1.11652C16.5859 1.82888 16.9995 2.79391 16.9995 3.8C17.014 4.67715 16.6845 5.5272 16.0769 6.18L11.0388 11.74C10.9678 11.8185 10.8802 11.8814 10.7818 11.9246C10.6835 11.9677 10.5767 11.99 10.4687 11.99V12ZM6.07329 5.28C6.29099 5.54 8.63381 8.12 10.4687 10.14L14.947 5.2C15.3073 4.81798 15.5005 4.3163 15.486 3.8C15.486 3.18205 15.2316 2.5894 14.7786 2.15244C14.3256 1.71548 13.7113 1.47 13.0707 1.47C12.6901 1.47297 12.3151 1.55909 11.974 1.7219C11.6328 1.8847 11.3344 2.11996 11.101 2.41C11.0257 2.49603 10.9321 2.56553 10.8266 2.61382C10.7211 2.66211 10.6062 2.68809 10.4894 2.69C10.3734 2.68847 10.2594 2.6605 10.1567 2.60836C10.054 2.55622 9.96552 2.4814 9.89852 2.39C9.66784 2.10104 9.37087 1.86758 9.03093 1.70796C8.69099 1.54833 8.31732 1.46688 7.93926 1.47C7.48505 1.47534 7.04153 1.6036 6.65919 1.84016C6.27684 2.07673 5.97103 2.41211 5.77658 2.8081C5.58213 3.2041 5.50684 3.64481 5.5593 4.08006C5.61176 4.51531 5.78985 4.9276 6.07329 5.27V5.28Z" fill="#D22856"/>
</g>
<defs>
<filter id="filter0_d" x="0" y="0" width="21" height="20.0001" filterUnits="userSpaceOnUse" color-interpolation-filters="sRGB">
<feFlood flood-opacity="0" result="BackgroundImageFix"/>
<feColorMatrix in="SourceAlpha" type="matrix" values="0 0 0 0 0 0 0 0 0 0 0 0 0 0 0 0 0 0 127 0"/>
<feOffset dy="4"/>
<feGaussianBlur stdDeviation="2"/>
<feColorMatrix type="matrix" values="0 0 0 0 0 0 0 0 0 0 0 0 0 0 0 0 0 0 0.25 0"/>
<feBlend mode="normal" in2="BackgroundImageFix" result="effect1_dropShadow"/>
<feBlend mode="normal" in="SourceGraphic" in2="effect1_dropShadow" result="shape"/>
</filter>
</defs>
</svg>
